<?xml version="1.0" encoding="UTF-8" standalone="no"?>
<!-- Created with Inkscape (http://www.inkscape.org/) -->

<svg
   width="500"
   height="500"
   viewBox="0 0 132.29166 132.29167"
   version="1.1"
   id="svg1"
   sodipodi:docname="data analysis.svg"
   inkscape:version="1.3 (0e150ed6c4, 2023-07-21)"
   xmlns:inkscape="http://www.inkscape.org/namespaces/inkscape"
   xmlns:sodipodi="http://sodipodi.sourceforge.net/DTD/sodipodi-0.dtd"
   xmlns="http://www.w3.org/2000/svg"
   xmlns:svg="http://www.w3.org/2000/svg">
  <sodipodi:namedview
     id="namedview1"
     pagecolor="#7c7c7c"
     bordercolor="#000000"
     borderopacity="0.25"
     inkscape:showpageshadow="2"
     inkscape:pageopacity="0.0"
     inkscape:pagecheckerboard="0"
     inkscape:deskcolor="#d1d1d1"
     inkscape:document-units="px"
     inkscape:zoom="2.2853691"
     inkscape:cx="173.93252"
     inkscape:cy="273.04123"
     inkscape:window-width="1920"
     inkscape:window-height="1017"
     inkscape:window-x="-8"
     inkscape:window-y="1"
     inkscape:window-maximized="1"
     inkscape:current-layer="layer1"
     showguides="true" />
  <defs
     id="defs1" />
  <g
     inkscape:label="Layer 1"
     inkscape:groupmode="layer"
     id="layer1">
    <path
       id="rect7"
       style="fill:#000000;fill-opacity:1;stroke-width:0.160912;stroke-dasharray:none"
       d="m 23.47041,25.712447 c -3.706782,0 -6.691064,2.984279 -6.691064,6.691066 0,0.661299 0.09884,1.297683 0.275952,1.900142 h -1.148766 v 8.995833 H 116.38876 v -8.995833 h -1.15341 c 0.17711,-0.602459 0.27595,-1.238843 0.27595,-1.900142 0,-3.706787 -2.98375,-6.691066 -6.69055,-6.691066 z m 65.83164,4.622457 a 3.9687495,3.9687495 0 0 1 3.96875,3.96875 3.9687495,3.9687495 0 0 1 -3.96875,3.96875 3.9687495,3.9687495 0 0 1 -3.96875,-3.96875 3.9687495,3.9687495 0 0 1 3.96875,-3.96875 z m 9.557039,0 a 3.9687495,3.9687495 0 0 1 3.968751,3.96875 3.9687495,3.9687495 0 0 1 -3.968751,3.96875 3.9687495,3.9687495 0 0 1 -3.96875,-3.96875 3.9687495,3.9687495 0 0 1 3.96875,-3.96875 z m 9.557031,0 a 3.9687495,3.9687495 0 0 1 3.96875,3.96875 3.9687495,3.9687495 0 0 1 -3.96875,3.96875 3.9687495,3.9687495 0 0 1 -3.96875,-3.96875 3.9687495,3.9687495 0 0 1 3.96875,-3.96875 z" />
    <g
       id="rect1"
       transform="translate(1.2991545,3.225e-4)">
      <path
         style="color:#000000;fill:#000000;-inkscape-stroke:none"
         d="m 27.002482,24.198175 c -7.870503,0 -14.206913,6.218556 -14.206913,13.942673 v 56.009963 c 0,7.724109 6.33641,13.942679 14.206913,13.942679 h 75.687558 c 7.8705,0 14.20691,-6.21857 14.20691,-13.942679 V 38.140848 c 0,-7.724117 -6.33641,-13.942673 -14.20691,-13.942673 z m 1.462153,2.163589 h 72.763255 c 7.19318,0 12.98444,5.682868 12.98444,12.742256 v 54.08362 c 0,7.05939 -5.79126,12.74225 -12.98444,12.74225 H 28.464635 c -7.193178,0 -12.984435,-5.68286 -12.984435,-12.74225 V 39.10402 c 0,-7.059388 5.791257,-12.742256 12.984435,-12.742256 z"
         id="path11" />
      <path
         style="color:#000000;fill:#000000;-inkscape-stroke:none"
         d="m 27.001953,22.875 c -8.567327,0 -15.529297,6.818021 -15.529297,15.265625 v 56.009766 c 0,8.447599 6.961969,15.265629 15.529297,15.265629 h 75.687497 c 8.56733,0 15.53125,-6.81803 15.53125,-15.265629 V 38.140625 c 0,-8.447604 -6.96392,-15.265625 -15.53125,-15.265625 z m -4.457031,3.457031 c -0.571172,0.256349 -1.118475,0.551786 -1.646485,0.876953 0.553956,-0.296421 1.045595,-0.661519 1.646485,-0.876953 z m 84.599608,0 c 0.60286,0.21597 1.09671,0.581436 1.65235,0.878906 -0.52933,-0.326128 -1.07963,-0.621957 -1.65235,-0.878906 z m -78.679686,1.353516 h 72.763676 c 6.4964,0 11.66015,5.082101 11.66015,11.417969 V 93.1875 c 0,6.335869 -5.16375,11.41992 -11.66015,11.41992 H 28.464844 c -6.496405,0 -11.66211,-5.08405 -11.66211,-11.41992 V 39.103516 c 0,-6.335868 5.165706,-11.417969 11.66211,-11.417969 z m 81.115236,0.04102 c 3.53646,2.242929 5.99414,5.954625 5.99414,10.414063 v 56.009766 c 0,4.454403 -2.45269,8.162124 -5.98242,10.406254 3.58488,-2.55317 5.94336,-6.674344 5.94336,-11.369145 V 39.103516 c 0,-4.70017 -2.36324,-8.824524 -5.95508,-11.376954 z m -89.468752,0.002 c -3.590686,2.552551 -5.953125,6.675719 -5.953125,11.375 V 93.1875 c 0,4.693915 2.357676,8.8139 5.941406,11.36719 -3.528436,-2.24436 -5.980468,-5.950863 -5.980468,-10.404299 V 38.140625 c 0,-4.458472 2.457014,-8.16895 5.992187,-10.412109 z m 88.669922,77.361323 c -0.5478,0.29226 -1.03334,0.65403 -1.62695,0.86719 0.56395,-0.25351 1.10509,-0.54653 1.62695,-0.86719 z m -87.867188,0.002 c 0.521021,0.31999 1.060081,0.61215 1.623047,0.86523 -0.592259,-0.21275 -1.07639,-0.57374 -1.623047,-0.86523 z"
         id="path12" />
    </g>
    <rect
       style="opacity:1;fill:#ffffff;fill-opacity:1;stroke:#000000;stroke-width:0;stroke-linecap:square;stroke-linejoin:bevel;stroke-miterlimit:0;stroke-dasharray:none;stroke-opacity:1;paint-order:normal"
       id="rect36"
       width="74.433784"
       height="2.9405942"
       x="28.670794"
       y="92.261139" />
    <rect
       style="opacity:1;fill:#ffffff;fill-opacity:1;stroke:#000000;stroke-width:0;stroke-linecap:square;stroke-linejoin:bevel;stroke-miterlimit:0;stroke-dasharray:none;stroke-opacity:1;paint-order:normal"
       id="rect37"
       width="8.9320526"
       height="12.12995"
       x="28.670794"
       y="76.778633" />
    <rect
       style="opacity:1;fill:#ffffff;fill-opacity:1;stroke:#000000;stroke-width:0;stroke-linecap:square;stroke-linejoin:bevel;stroke-miterlimit:0;stroke-dasharray:none;stroke-opacity:1;paint-order:normal"
       id="rect38"
       width="8.9320526"
       height="21.70409"
       x="41.771137"
       y="67.204491" />
    <rect
       style="opacity:1;fill:#ffffff;fill-opacity:1;stroke:#000000;stroke-width:0;stroke-linecap:square;stroke-linejoin:bevel;stroke-miterlimit:0;stroke-dasharray:none;stroke-opacity:1;paint-order:normal"
       id="rect39"
       width="8.9320526"
       height="18.746288"
       x="54.871487"
       y="70.162292" />
    <rect
       style="opacity:1;fill:#ffffff;fill-opacity:1;stroke:#000000;stroke-width:0;stroke-linecap:square;stroke-linejoin:bevel;stroke-miterlimit:0;stroke-dasharray:none;stroke-opacity:1;paint-order:normal"
       id="rect40"
       width="8.9320526"
       height="31.243809"
       x="67.971832"
       y="57.664768" />
    <rect
       style="opacity:1;fill:#ffffff;fill-opacity:1;stroke:#000000;stroke-width:0;stroke-linecap:square;stroke-linejoin:bevel;stroke-miterlimit:0;stroke-dasharray:none;stroke-opacity:1;paint-order:normal"
       id="rect41"
       width="8.9320526"
       height="26.114979"
       x="81.072182"
       y="62.793598" />
    <rect
       style="opacity:1;fill:#ffffff;fill-opacity:1;stroke:#000000;stroke-width:0;stroke-linecap:square;stroke-linejoin:bevel;stroke-miterlimit:0;stroke-dasharray:none;stroke-opacity:1;paint-order:normal"
       id="rect42"
       width="8.9320526"
       height="37.492573"
       x="94.172523"
       y="51.416004" />
    <path
       style="opacity:1;fill:#494949;fill-opacity:0;stroke:#5a5a5a;stroke-width:1.32291665;stroke-linecap:square;stroke-linejoin:bevel;stroke-miterlimit:0;stroke-dasharray:none;stroke-opacity:1;paint-order:normal"
       d="m 33.136821,79.535437 13.100344,-7.929062 13.100348,5.172257 13.100347,-10.6328 13.100348,1.821744 13.100341,-12.215971"
       id="path44" />
    <path
       style="opacity:1;fill:#494949;fill-opacity:0;stroke:#3a3a3a;stroke-width:1.32292;stroke-linecap:square;stroke-linejoin:bevel;stroke-miterlimit:0;stroke-dasharray:none;stroke-opacity:1;paint-order:normal"
       d="M 33.136821,84.319564 45.352464,82.843607 59.337513,81.52072 72.43786,73.286672 85.538208,78.056535 98.638549,76.778632"
       id="path45"
       sodipodi:nodetypes="cccccc" />
    <circle
       style="opacity:1;fill:#595959;fill-opacity:1;stroke:#595959;stroke-width:0.67177707;stroke-linecap:square;stroke-linejoin:bevel;stroke-miterlimit:0;stroke-dasharray:none;stroke-opacity:1;paint-order:normal"
       id="path46"
       cx="33.136818"
       cy="79.535439"
       r="0.98699671" />
    <circle
       style="fill:#3b3b3b;fill-opacity:1;stroke:#3b3b3b;stroke-width:0.67177707;stroke-linecap:square;stroke-linejoin:bevel;stroke-miterlimit:0;stroke-dasharray:none;stroke-opacity:1;paint-order:normal"
       id="path46-0"
       cx="33.136818"
       cy="84.318901"
       r="0.98699671" />
    <circle
       style="fill:#3b3b3b;fill-opacity:1;stroke:#3b3b3b;stroke-width:0.67177707;stroke-linecap:square;stroke-linejoin:bevel;stroke-miterlimit:0;stroke-dasharray:none;stroke-opacity:1;paint-order:normal"
       id="path46-0-5"
       cx="45.409229"
       cy="82.843605"
       r="0.98699671" />
    <circle
       style="fill:#595959;fill-opacity:1;stroke:#595959;stroke-width:0.67177707;stroke-linecap:square;stroke-linejoin:bevel;stroke-miterlimit:0;stroke-dasharray:none;stroke-opacity:1;paint-order:normal"
       id="path46-0-5-1"
       cx="46.237164"
       cy="71.700111"
       r="0.98699671" />
    <circle
       style="fill:#595959;fill-opacity:1;stroke:#595959;stroke-width:0.671777;stroke-linecap:square;stroke-linejoin:bevel;stroke-miterlimit:0;stroke-dasharray:none;stroke-opacity:1;paint-order:normal"
       id="path46-0-5-3"
       cx="59.337513"
       cy="76.576035"
       r="0.98699671" />
    <circle
       style="fill:#3b3b3b;fill-opacity:1;stroke:#3b3b3b;stroke-width:0.67177707;stroke-linecap:square;stroke-linejoin:bevel;stroke-miterlimit:0;stroke-dasharray:none;stroke-opacity:1;paint-order:normal"
       id="path46-0-5-43"
       cx="72.437859"
       cy="73.286674"
       r="0.98699671" />
    <circle
       style="fill:#595959;fill-opacity:1;stroke:#595959;stroke-width:0.67177707;stroke-linecap:square;stroke-linejoin:bevel;stroke-miterlimit:0;stroke-dasharray:none;stroke-opacity:1;paint-order:normal"
       id="path46-0-5-2"
       cx="72.437859"
       cy="66.145836"
       r="0.98699671" />
    <circle
       style="fill:#3b3b3b;fill-opacity:1;stroke:#3b3b3b;stroke-width:0.67177707;stroke-linecap:square;stroke-linejoin:bevel;stroke-miterlimit:0;stroke-dasharray:none;stroke-opacity:1;paint-order:normal"
       id="path46-0-5-14"
       cx="85.538208"
       cy="78.101547"
       r="0.98699671" />
    <circle
       style="fill:#595959;fill-opacity:1;stroke:#595959;stroke-width:0.67177707;stroke-linecap:square;stroke-linejoin:bevel;stroke-miterlimit:0;stroke-dasharray:none;stroke-opacity:1;paint-order:normal"
       id="path46-0-5-8"
       cx="85.5382"
       cy="67.838448"
       r="0.98699671" />
    <circle
       style="fill:#3b3b3b;fill-opacity:1;stroke:#3b3b3b;stroke-width:0.67177707;stroke-linecap:square;stroke-linejoin:bevel;stroke-miterlimit:0;stroke-dasharray:none;stroke-opacity:1;paint-order:normal"
       id="path46-0-5-42"
       cx="99.039833"
       cy="76.83577"
       r="0.98699671" />
    <circle
       style="fill:#595959;fill-opacity:1;stroke:#595959;stroke-width:0.67177707;stroke-linecap:square;stroke-linejoin:bevel;stroke-miterlimit:0;stroke-dasharray:none;stroke-opacity:1;paint-order:normal"
       id="path46-0-5-84"
       cx="98.63855"
       cy="55.429024"
       r="0.98699671" />
    <circle
       style="fill:#3b3b3b;fill-opacity:1;stroke:#3b3b3b;stroke-width:0.671777;stroke-linecap:square;stroke-linejoin:bevel;stroke-miterlimit:0;stroke-dasharray:none;stroke-opacity:1;paint-order:normal"
       id="path46-0-5-43-1"
       cx="59.337513"
       cy="81.520721"
       r="0.98699671" />
  </g>
</svg>
