<?xml version="1.0" encoding="UTF-8" standalone="no"?>
<!-- Created with Inkscape (http://www.inkscape.org/) -->

<svg
   width="500"
   height="500"
   viewBox="0 0 132.29166 132.29167"
   version="1.1"
   id="svg1"
   sodipodi:docname="globe.svg"
   inkscape:version="1.3 (0e150ed6c4, 2023-07-21)"
   xmlns:inkscape="http://www.inkscape.org/namespaces/inkscape"
   xmlns:sodipodi="http://sodipodi.sourceforge.net/DTD/sodipodi-0.dtd"
   xmlns="http://www.w3.org/2000/svg"
   xmlns:svg="http://www.w3.org/2000/svg">
  <sodipodi:namedview
     id="namedview1"
     pagecolor="#7c7c7c"
     bordercolor="#000000"
     borderopacity="0.25"
     inkscape:showpageshadow="2"
     inkscape:pageopacity="0.0"
     inkscape:pagecheckerboard="0"
     inkscape:deskcolor="#d1d1d1"
     inkscape:document-units="px"
     inkscape:zoom="1.4396184"
     inkscape:cx="142.74616"
     inkscape:cy="277.85141"
     inkscape:window-width="1920"
     inkscape:window-height="1017"
     inkscape:window-x="-8"
     inkscape:window-y="1"
     inkscape:window-maximized="1"
     inkscape:current-layer="layer1" />
  <defs
     id="defs1" />
  <g
     inkscape:label="Layer 1"
     inkscape:groupmode="layer"
     id="layer1">
    <path
       id="rect7"
       style="fill:#000000;fill-opacity:1;stroke-width:0.160912;stroke-dasharray:none"
       d="m 23.47041,25.712447 c -3.706782,0 -6.691064,2.984279 -6.691064,6.691066 0,0.661299 0.09884,1.297683 0.275952,1.900142 h -1.148766 v 8.995833 H 116.38876 v -8.995833 h -1.15341 c 0.17711,-0.602459 0.27595,-1.238843 0.27595,-1.900142 0,-3.706787 -2.98375,-6.691066 -6.69055,-6.691066 z m 65.83164,4.622457 a 3.9687495,3.9687495 0 0 1 3.96875,3.96875 3.9687495,3.9687495 0 0 1 -3.96875,3.96875 3.9687495,3.9687495 0 0 1 -3.96875,-3.96875 3.9687495,3.9687495 0 0 1 3.96875,-3.96875 z m 9.557039,0 a 3.9687495,3.9687495 0 0 1 3.968751,3.96875 3.9687495,3.9687495 0 0 1 -3.968751,3.96875 3.9687495,3.9687495 0 0 1 -3.96875,-3.96875 3.9687495,3.9687495 0 0 1 3.96875,-3.96875 z m 9.557031,0 a 3.9687495,3.9687495 0 0 1 3.96875,3.96875 3.9687495,3.9687495 0 0 1 -3.96875,3.96875 3.9687495,3.9687495 0 0 1 -3.96875,-3.96875 3.9687495,3.9687495 0 0 1 3.96875,-3.96875 z" />
    <g
       id="rect1"
       transform="translate(1.2991545,3.225e-4)">
      <path
         style="color:#000000;fill:#000000;-inkscape-stroke:none"
         d="m 27.002482,24.198175 c -7.870503,0 -14.206913,6.218556 -14.206913,13.942673 v 56.009963 c 0,7.724109 6.33641,13.942679 14.206913,13.942679 h 75.687558 c 7.8705,0 14.20691,-6.21857 14.20691,-13.942679 V 38.140848 c 0,-7.724117 -6.33641,-13.942673 -14.20691,-13.942673 z m 1.462153,2.163589 h 72.763255 c 7.19318,0 12.98444,5.682868 12.98444,12.742256 v 54.08362 c 0,7.05939 -5.79126,12.74225 -12.98444,12.74225 H 28.464635 c -7.193178,0 -12.984435,-5.68286 -12.984435,-12.74225 V 39.10402 c 0,-7.059388 5.791257,-12.742256 12.984435,-12.742256 z"
         id="path11" />
      <path
         style="color:#000000;fill:#000000;-inkscape-stroke:none"
         d="m 27.001953,22.875 c -8.567327,0 -15.529297,6.818021 -15.529297,15.265625 v 56.009766 c 0,8.447599 6.961969,15.265629 15.529297,15.265629 h 75.687497 c 8.56733,0 15.53125,-6.81803 15.53125,-15.265629 V 38.140625 c 0,-8.447604 -6.96392,-15.265625 -15.53125,-15.265625 z m -4.457031,3.457031 c -0.571172,0.256349 -1.118475,0.551786 -1.646485,0.876953 0.553956,-0.296421 1.045595,-0.661519 1.646485,-0.876953 z m 84.599608,0 c 0.60286,0.21597 1.09671,0.581436 1.65235,0.878906 -0.52933,-0.326128 -1.07963,-0.621957 -1.65235,-0.878906 z m -78.679686,1.353516 h 72.763676 c 6.4964,0 11.66015,5.082101 11.66015,11.417969 V 93.1875 c 0,6.335869 -5.16375,11.41992 -11.66015,11.41992 H 28.464844 c -6.496405,0 -11.66211,-5.08405 -11.66211,-11.41992 V 39.103516 c 0,-6.335868 5.165706,-11.417969 11.66211,-11.417969 z m 81.115236,0.04102 c 3.53646,2.242929 5.99414,5.954625 5.99414,10.414063 v 56.009766 c 0,4.454403 -2.45269,8.162124 -5.98242,10.406254 3.58488,-2.55317 5.94336,-6.674344 5.94336,-11.369145 V 39.103516 c 0,-4.70017 -2.36324,-8.824524 -5.95508,-11.376954 z m -89.468752,0.002 c -3.590686,2.552551 -5.953125,6.675719 -5.953125,11.375 V 93.1875 c 0,4.693915 2.357676,8.8139 5.941406,11.36719 -3.528436,-2.24436 -5.980468,-5.950863 -5.980468,-10.404299 V 38.140625 c 0,-4.458472 2.457014,-8.16895 5.992187,-10.412109 z m 88.669922,77.361323 c -0.5478,0.29226 -1.03334,0.65403 -1.62695,0.86719 0.56395,-0.25351 1.10509,-0.54653 1.62695,-0.86719 z m -87.867188,0.002 c 0.521021,0.31999 1.060081,0.61215 1.623047,0.86523 -0.592259,-0.21275 -1.07639,-0.57374 -1.623047,-0.86523 z"
         id="path12" />
    </g>
    <path
       id="rect32"
       style="fill:#696969;fill-opacity:1;stroke:#000000;stroke-width:0;stroke-miterlimit:0;stroke-dasharray:none;stroke-opacity:1"
       d="m 45.402208,85.81007 -5.621984,2.086325 26.365298,9.782917 26.365297,-9.782917 -5.621984,-2.086325 -20.743313,7.697033 z" />
    <path
       id="rect33"
       style="fill:#3c3c3c;fill-opacity:1;stroke:#000000;stroke-width:0;stroke-miterlimit:0;stroke-dasharray:none;stroke-opacity:1"
       d="m 46.13538,80.024191 -6.355156,2.358036 26.365298,9.782919 26.364866,-9.782919 -6.354724,-2.358036 -20.010142,7.424885 z" />
    <rect
       style="fill:#242424;fill-opacity:1;stroke:#000000;stroke-width:0;stroke-miterlimit:0;stroke-dasharray:none;stroke-opacity:1"
       id="rect34"
       width="28.121645"
       height="28.121645"
       x="-88.48571"
       y="130.91608"
       ry="0"
       transform="matrix(0.93754108,-0.34787458,0.93754108,0.34787458,0,0)" />
    <path
       id="path35"
       style="opacity:1;fill:#ffffff;fill-opacity:1;stroke:#000000;stroke-width:0;stroke-linecap:square;stroke-linejoin:bevel;stroke-miterlimit:0;stroke-dasharray:none;stroke-opacity:1;paint-order:normal"
       d="m 66.177917,56.674488 a 6.4465362,6.1705979 0 0 0 -2.476435,0.485613 h -0.03036 l -0.003,-0.0053 -0.01105,0.02121 a 6.4465362,6.1705979 0 0 0 -3.925642,5.669077 6.4465362,6.1705979 0 0 0 0.200303,1.470659 l -0.0098,0.01864 0.02467,0.04732 a 6.4465362,6.1705979 0 0 0 0.209782,0.599463 l -0.0132,-8e-5 0.03856,0.07255 a 6.4465362,6.1705979 0 0 0 0.587091,1.103476 l 5.409155,10.167188 5.448446,-10.222144 a 6.4465362,6.1705979 0 0 0 0.526508,-0.987859 l 0.02764,-0.0519 -0.0095,-8e-5 a 6.4465362,6.1705979 0 0 0 0.238146,-0.680614 l 0.02467,-0.04732 -0.0098,-0.01864 a 6.4465362,6.1705979 0 0 0 0.200304,-1.470659 6.4465362,6.1705979 0 0 0 -3.931587,-5.680565 l -6.19e-4,-0.0012 h -0.0023 a 6.4465362,6.1705979 0 0 0 -2.512027,-0.488828 z m 0,2.971851 a 3.3418259,3.1987819 0 0 1 3.341764,3.198748 3.3418259,3.1987819 0 0 1 -3.341764,3.198747 3.3418259,3.1987819 0 0 1 -3.341845,-3.198747 3.3418259,3.1987819 0 0 1 3.341845,-3.198748 z" />
  </g>
</svg>
